<?xml version="1.0" encoding="UTF-8"?><svg xmlns="http://www.w3.org/2000/svg" xmlns:xlink="http://www.w3.org/1999/xlink" height="159.2" preserveAspectRatio="xMidYMid meet" version="1.0" viewBox="1.0 2.4 162.0 159.2" width="162.0" zoomAndPan="magnify"><g><g id="change1_37"><path d="M78.3,145.2c0-0.5-0.4-1-1-1H53.5c-0.5,0-1,0.4-1,1c0,0.5,0.4,1,1,1h23.8C77.8,146.2,78.3,145.7,78.3,145.2z"/></g><g id="change1_29"><path d="M86,145.2c0-0.5-0.4-1-1-1h-3.9c-0.5,0-1,0.4-1,1c0,0.5,0.4,1,1,1H85C85.6,146.2,86,145.7,86,145.2z"/></g><g id="change1_41"><path d="M88.4,146.2H91c0.5,0,1-0.4,1-1c0-0.5-0.4-1-1-1h-2.6c-0.5,0-1,0.4-1,1C87.4,145.7,87.8,146.2,88.4,146.2z"/></g><g id="change1_30"><path d="M107.6,149H83.8c-0.5,0-1,0.4-1,1c0,0.5,0.4,1,1,1h23.8c0.5,0,1-0.4,1-1C108.6,149.5,108.1,149,107.6,149z"/></g><g id="change1_19"><path d="M80,149h-3.9c-0.5,0-1,0.4-1,1c0,0.5,0.4,1,1,1H80c0.5,0,1-0.4,1-1C81,149.5,80.5,149,80,149z"/></g><g id="change1_25"><path d="M72.7,149h-2.6c-0.5,0-1,0.4-1,1c0,0.5,0.4,1,1,1h2.6c0.5,0,1-0.4,1-1C73.7,149.5,73.3,149,72.7,149z"/></g><g id="change1_17"><path d="M41.5,99.6c0-7.5-6.1-13.6-13.6-13.6S14.3,92,14.3,99.6c0,7.5,6.1,13.6,13.6,13.6S41.5,107.1,41.5,99.6z M27.9,111.2 c-6.4,0-11.7-5.2-11.7-11.7c0-6.4,5.2-11.7,11.7-11.7s11.7,5.2,11.7,11.7C39.5,106,34.3,111.2,27.9,111.2z"/></g><g id="change1_22"><path d="M27.9,97.2c2,0,3.6-1.6,3.6-3.6c0-2-1.6-3.6-3.6-3.6c-2,0-3.6,1.6-3.6,3.6C24.3,95.6,25.9,97.2,27.9,97.2z M27.9,92 c0.9,0,1.6,0.7,1.6,1.6c0,0.9-0.7,1.6-1.6,1.6c-0.9,0-1.6-0.7-1.6-1.6C26.3,92.8,27,92,27.9,92z"/></g><g id="change1_20"><path d="M27.9,101.9c-2,0-3.6,1.6-3.6,3.6s1.6,3.6,3.6,3.6c2,0,3.6-1.6,3.6-3.6S29.8,101.9,27.9,101.9z M27.9,107.1 c-0.9,0-1.6-0.7-1.6-1.6c0-0.9,0.7-1.6,1.6-1.6c0.9,0,1.6,0.7,1.6,1.6C29.5,106.3,28.8,107.1,27.9,107.1z"/></g><g id="change1_34"><path d="M33.8,96c-2,0-3.6,1.6-3.6,3.6s1.6,3.6,3.6,3.6s3.6-1.6,3.6-3.6S35.7,96,33.8,96z M33.8,101.2c-0.9,0-1.6-0.7-1.6-1.6 c0-0.9,0.7-1.6,1.6-1.6c0.9,0,1.6,0.7,1.6,1.6C35.4,100.4,34.7,101.2,33.8,101.2z"/></g><g id="change1_33"><path d="M25.5,99.6c0-2-1.6-3.6-3.6-3.6s-3.6,1.6-3.6,3.6s1.6,3.6,3.6,3.6S25.5,101.5,25.5,99.6z M22,101.2 c-0.9,0-1.6-0.7-1.6-1.6c0-0.9,0.7-1.6,1.6-1.6c0.9,0,1.6,0.7,1.6,1.6C23.6,100.4,22.8,101.2,22,101.2z"/></g><g id="change1_16"><path d="M79.1,113.2c7.5,0,13.6-6.1,13.6-13.6c0-7.5-6.1-13.6-13.6-13.6c-7.5,0-13.6,6.1-13.6,13.6 C65.5,107.1,71.6,113.2,79.1,113.2z M79.1,87.9c6.4,0,11.7,5.2,11.7,11.7c0,6.4-5.2,11.7-11.7,11.7c-6.4,0-11.7-5.2-11.7-11.7 C67.4,93.1,72.7,87.9,79.1,87.9z"/></g><g id="change1_28"><path d="M71.8,102.8h4v4c0,0.5,0.4,1,1,1h4.6c0.5,0,1-0.4,1-1v-4h4c0.5,0,1-0.4,1-1v-4.6c0-0.5-0.4-1-1-1h-4v-4c0-0.5-0.4-1-1-1 h-4.6c-0.5,0-1,0.4-1,1v4h-4c-0.5,0-1,0.4-1,1v4.6C70.8,102.4,71.3,102.8,71.8,102.8z M72.8,98.2h4c0.5,0,1-0.4,1-1v-4h2.6v4 c0,0.5,0.4,1,1,1h4v2.6h-4c-0.5,0-1,0.4-1,1v4h-2.6v-4c0-0.5-0.4-1-1-1h-4V98.2z"/></g><g id="change1_11"><path d="M57.7,103.2c2,0,3.6-1.6,3.6-3.6s-1.6-3.6-3.6-3.6c-2,0-3.6,1.6-3.6,3.6S55.7,103.2,57.7,103.2z M57.7,97.9 c0.9,0,1.7,0.7,1.7,1.7c0,0.9-0.7,1.7-1.7,1.7c-0.9,0-1.7-0.7-1.7-1.7C56,98.6,56.8,97.9,57.7,97.9z"/></g><g id="change1_3"><path d="M49.3,103.2c2,0,3.6-1.6,3.6-3.6s-1.6-3.6-3.6-3.6c-2,0-3.6,1.6-3.6,3.6S47.3,103.2,49.3,103.2z M49.3,97.9 c0.9,0,1.7,0.7,1.7,1.7c0,0.9-0.7,1.7-1.7,1.7c-0.9,0-1.7-0.7-1.7-1.7C47.6,98.6,48.4,97.9,49.3,97.9z"/></g><g id="change1_39"><path d="M71.1,5.4c-1.6,0-3,1.3-3,3c0,1.6,1.3,3,3,3c1.6,0,3-1.3,3-3C74.1,6.8,72.8,5.4,71.1,5.4z M71.1,9.4c-0.6,0-1-0.5-1-1 s0.5-1,1-1c0.6,0,1,0.5,1,1S71.7,9.4,71.1,9.4z"/></g><g id="change1_4"><path d="M79,5.4c-1.6,0-3,1.3-3,3c0,1.6,1.3,3,3,3c1.6,0,3-1.3,3-3C82,6.8,80.6,5.4,79,5.4z M79,9.4c-0.6,0-1-0.5-1-1s0.5-1,1-1 c0.6,0,1,0.5,1,1S79.5,9.4,79,9.4z"/></g><g id="change1_1"><path d="M86.8,5.4c-1.6,0-3,1.3-3,3c0,1.6,1.3,3,3,3c1.6,0,3-1.3,3-3C89.8,6.8,88.5,5.4,86.8,5.4z M86.8,9.4c-0.6,0-1-0.5-1-1 s0.5-1,1-1c0.6,0,1,0.5,1,1S87.4,9.4,86.8,9.4z"/></g><g id="change1_42"><path d="M162.3,103.9l-4.8-1.4c1.8-6.6,2.7-13.4,2.7-20.4c0-18-6.2-35.6-17.4-49.6v-19c0,0,0,0,0,0v-6c0-2.1-1.3-3.9-3.1-4.7 c-0.6-0.3-1.3-0.4-2-0.4H68.6c-1.5,0-2.9,0.7-3.8,1.7C27.8,11.5,1,44.2,1,82.1c0,12.3,2.7,24.1,8.1,35.1v9.4 c0,7,5.7,12.7,12.7,12.7c1,0,2.1-0.1,3-0.4c15,14.7,34.7,22.7,55.7,22.7c20.8,0,40.4-7.9,55.3-22.4c1.6-0.1,3,0.4,3.3-0.7l1.2-4 c0.7-0.8,1.4-1.6,2.1-2.5c0.6-0.3,1.3-0.5,1.9-0.8l5.4,2.9c0.4,0.2,0.9,0.1,1.2-0.2l6.8-6.8c0.3-0.3,0.4-0.8,0.2-1.2l-2.9-5.4 c0.6-1.1,1-2.2,1.4-3.4l5.9-1.8c0.4-0.1,0.7-0.5,0.7-0.9v-9.7C163,104.4,162.7,104,162.3,103.9z M155,98.7l2.1-4 c-0.3,2-0.7,4-1.2,6C155.6,100,155.3,99.4,155,98.7z M158.1,82.1c0,3.3-0.2,6.6-0.6,9.8l-6.6-6.6c-0.3-0.3-0.8-0.4-1.2-0.2 l-5.4,2.9c-0.5-0.3-1.1-0.5-1.6-0.7V35.6C152.7,49,158.1,65.4,158.1,82.1z M108.9,93.3l2.9,5.4c-0.6,1.1-1,2.2-1.4,3.4l-5.9,1.8 c-0.4,0.1-0.7,0.5-0.7,0.9v2.3h-5.9v-7.2c0-10.4-8.3-19-18.6-19.1c-0.1,0-0.1,0-0.2,0c-4.8,0-9.3,1.8-12.8,5.1 c-0.3,0.2-0.5,0.4-0.8,0.6V14.4h75.3v71.6l-1.6-5.4c-0.1-0.4-0.5-0.7-0.9-0.7h-9.7c-0.4,0-0.8,0.3-0.9,0.7l-1.8,5.9 c-1.2,0.4-2.3,0.9-3.4,1.4l-5.4-2.9c-0.4-0.2-0.9-0.1-1.2,0.2l-6.8,6.8C108.7,92.4,108.6,92.9,108.9,93.3z M109,127.2l6.8,6.8 c0.3,0.3,0.8,0.4,1.2,0.2l5.4-2.9c1.1,0.6,2.2,1,3.4,1.4l1.4,4.7H91.9c3.6-2.3,6-6.2,6-10.7V109h5.9v5.4c0,0.4,0.3,0.8,0.7,0.9 l5.9,1.8c0.4,1.2,0.9,2.3,1.4,3.4l-2.9,5.4C108.6,126.4,108.7,126.9,109,127.2z M48.4,73.1h-24c-2.3,0-4.1-1.8-4.1-4.1 c0-2.3,1.8-4.1,4.1-4.1h30.1c2.8,0,5.1-2.3,5.1-5.1c0-2.8-2.3-5.1-5.1-5.1H42.3c-3.8,0-6.8-3.1-6.8-6.8c0-3.8,3.1-6.8,6.8-6.8 h21.2v46.2c-0.4,0.1-0.9,0.2-1.4,0.2h-7.7v-8.3C54.5,75.8,51.8,73.1,48.4,73.1z M140.7,7.5v5H65.5v-5c0-1.7,1.4-3.2,3.2-3.2h69 c0.4,0,0.8,0.1,1.2,0.2C139.9,5.1,140.7,6.2,140.7,7.5z M3,82.1C3,45.7,28.4,14.2,63.7,6.4c-0.1,0.4-0.1,0.7-0.1,1.1v0v6v25.7 H42.3c-4.8,0-8.8,3.9-8.8,8.8s3.9,8.8,8.8,8.8h12.2c1.7,0,3.1,1.4,3.1,3.1c0,1.7-1.4,3.1-3.1,3.1H24.5c-3.3,0-6.1,2.7-6.1,6.1 c0,3.3,2.7,6.1,6.1,6.1h24c2.3,0,4.1,1.8,4.1,4.1v8.3h-7.7c-1.6,0-3.1-0.6-4.2-1.6c-3.5-3.3-8.1-5.1-13-5.1 C17.5,80.9,9.1,89.5,9.1,99.9v12.5C5,102.8,3,92.7,3,82.1z M11.1,126.5v-9.7c0,0,0,0,0,0v-17c0-9.4,7.5-17,16.6-17.1 c4.3,0,8.4,1.6,11.6,4.5c1.5,1.4,3.4,2.1,5.5,2.1h17.3c2.1,0,4-0.8,5.5-2.1c3.1-2.9,7.2-4.5,11.5-4.5c0.1,0,0.1,0,0.2,0 c9.2,0.1,16.6,7.8,16.6,17.1v8.1c0,0,0,0,0,0s0,0,0,0v18.5c0,5.9-4.8,10.7-10.8,10.7c-4.6,0-8.6-2.9-10.2-7.3l-6.3-14 c-1.3-2.9-4.2-4.8-7.4-4.8H45.7c-3.2,0-6.1,1.9-7.4,4.8L32,130.1c-1.5,4.3-5.6,7.2-10.1,7.2C15.9,137.3,11.1,132.5,11.1,126.5z M78.4,137.3H28.6c2.4-1.5,4.2-3.7,5.2-6.5l6.3-14c1-2.2,3.2-3.7,5.6-3.7h15.5c2.4,0,4.7,1.4,5.6,3.7l6.3,13.9 C74.1,133.5,76,135.8,78.4,137.3z M28.1,139.3c10.7,0,91.2,0,104.9,0c-14.3,13.2-32.8,20.4-52.4,20.4 C61,159.7,42.5,152.4,28.1,139.3z M161,113.7l-5.7,1.7c-0.3,0.1-0.6,0.3-0.7,0.7c-0.4,1.4-1,2.7-1.7,4c-0.2,0.3-0.2,0.6,0,0.9 l2.8,5.2l-5.8,5.8l-5.2-2.8c-0.3-0.2-0.6-0.2-0.9,0c-1.3,0.7-2.6,1.2-4,1.7c-0.3,0.1-0.6,0.3-0.7,0.7l-0.6,2.2c0,0,0,0,0,0l-1,3.5 c-0.2,0-8.6,0-8.2,0l-1.7-5.7c-0.1-0.3-0.3-0.6-0.7-0.7c-1.4-0.4-2.8-1-4-1.7c-0.3-0.2-0.6-0.2-0.9,0l-5.2,2.8l-5.8-5.8l2.8-5.2 c0.2-0.3,0.2-0.6,0-0.9c-0.7-1.3-1.2-2.6-1.7-4c-0.1-0.3-0.3-0.6-0.7-0.7l-5.7-1.7v-8.2l5.7-1.7c0.3-0.1,0.6-0.3,0.7-0.7 c0.4-1.4,1-2.7,1.7-4c0.2-0.3,0.2-0.6,0-0.9l-2.8-5.2l5.8-5.8L122,90c0.3,0.2,0.6,0.2,0.9,0c1.3-0.7,2.6-1.2,4-1.7 c0.3-0.1,0.6-0.3,0.7-0.7l1.7-5.7h8.2l1.7,5.7c0.1,0.3,0.3,0.6,0.7,0.7c1.4,0.4,2.8,1,4,1.7c0.3,0.2,0.6,0.2,0.9,0l5.2-2.8 l5.8,5.8l-2.8,5.2c-0.2,0.3-0.2,0.6,0,0.9c0.7,1.3,1.2,2.6,1.7,4c0.1,0.3,0.3,0.6,0.7,0.7l0.7,0.2c0,0,0,0,0,0c0,0,0,0,0,0l5,1.5 V113.7z"/></g><g id="change1_13"><path d="M82.2,21.8H73c-0.5,0-1,0.4-1,1c0,0.5,0.4,1,1,1h9.2c0.5,0,1-0.4,1-1C83.2,22.3,82.8,21.8,82.2,21.8z"/></g><g id="change1_31"><path d="M86.2,23.8H90c0.5,0,1-0.4,1-1c0-0.5-0.4-1-1-1h-3.8c-0.5,0-1,0.4-1,1C85.3,23.4,85.7,23.8,86.2,23.8z"/></g><g id="change1_12"><path d="M82.2,25.8H73c-0.5,0-1,0.4-1,1c0,0.5,0.4,1,1,1h9.2c0.5,0,1-0.4,1-1C83.2,26.2,82.8,25.8,82.2,25.8z"/></g><g id="change1_6"><path d="M86.2,27.8H90c0.5,0,1-0.4,1-1c0-0.5-0.4-1-1-1h-3.8c-0.5,0-1,0.4-1,1C85.3,27.3,85.7,27.8,86.2,27.8z"/></g><g id="change1_9"><path d="M87.3,32.4c0,0.5,0.4,1,1,1h9.2c0.5,0,1-0.4,1-1c0-0.5-0.4-1-1-1h-9.2C87.8,31.4,87.3,31.8,87.3,32.4z"/></g><g id="change1_14"><path d="M102.2,33.3h9.2c0.5,0,1-0.4,1-1c0-0.5-0.4-1-1-1h-9.2c-0.5,0-1,0.4-1,1C101.2,32.9,101.6,33.3,102.2,33.3z"/></g><g id="change1_8"><path d="M116,33.3h17.2c0.5,0,1-0.4,1-1c0-0.5-0.4-1-1-1H116c-0.5,0-1,0.4-1,1C115,32.9,115.5,33.3,116,33.3z"/></g><g id="change1_35"><path d="M87.3,37.7c0,0.5,0.4,1,1,1h24.2c0.5,0,1-0.4,1-1c0-0.5-0.4-1-1-1H88.3C87.8,36.8,87.3,37.2,87.3,37.7z"/></g><g id="change1_32"><path d="M116,38.7h12.8c0.5,0,1-0.4,1-1c0-0.5-0.4-1-1-1H116c-0.5,0-1,0.4-1,1C115,38.3,115.5,38.7,116,38.7z"/></g><g id="change1_15"><path d="M104,40.9H88.3c-0.5,0-1,0.4-1,1c0,0.5,0.4,1,1,1H104c0.5,0,1-0.4,1-1C105,41.3,104.6,40.9,104,40.9z"/></g><g id="change1_21"><path d="M124.8,41.9c0-0.5-0.4-1-1-1h-15.7c-0.5,0-1,0.4-1,1c0,0.5,0.4,1,1,1h15.7C124.4,42.9,124.8,42.4,124.8,41.9z"/></g><g id="change1_38"><path d="M82.2,48.6H73c-0.5,0-1,0.4-1,1c0,0.5,0.4,1,1,1h9.2c0.5,0,1-0.4,1-1C83.2,49,82.8,48.6,82.2,48.6z"/></g><g id="change1_43"><path d="M86.2,50.6H90c0.5,0,1-0.4,1-1c0-0.5-0.4-1-1-1h-3.8c-0.5,0-1,0.4-1,1C85.3,50.1,85.7,50.6,86.2,50.6z"/></g><g id="change1_5"><path d="M82.2,52.6H73c-0.5,0-1,0.4-1,1c0,0.5,0.4,1,1,1h9.2c0.5,0,1-0.4,1-1C83.2,53,82.8,52.6,82.2,52.6z"/></g><g id="change1_7"><path d="M91,53.6c0-0.5-0.4-1-1-1h-3.8c-0.5,0-1,0.4-1,1c0,0.5,0.4,1,1,1H90C90.6,54.5,91,54.1,91,53.6z"/></g><g id="change1_40"><path d="M87.3,59.1c0,0.5,0.4,1,1,1h9.2c0.5,0,1-0.4,1-1c0-0.5-0.4-1-1-1h-9.2C87.8,58.1,87.3,58.6,87.3,59.1z"/></g><g id="change1_18"><path d="M101.2,59.1c0,0.5,0.4,1,1,1h9.2c0.5,0,1-0.4,1-1c0-0.5-0.4-1-1-1h-9.2C101.6,58.1,101.2,58.6,101.2,59.1z"/></g><g id="change1_23"><path d="M133.2,58.1H116c-0.5,0-1,0.4-1,1c0,0.5,0.4,1,1,1h17.2c0.5,0,1-0.4,1-1C134.2,58.6,133.7,58.1,133.2,58.1z"/></g><g id="change1_10"><path d="M88.3,65.5h24.2c0.5,0,1-0.4,1-1c0-0.5-0.4-1-1-1H88.3c-0.5,0-1,0.4-1,1C87.3,65.1,87.8,65.5,88.3,65.5z"/></g><g id="change1_2"><path d="M128.9,63.5H116c-0.5,0-1,0.4-1,1c0,0.5,0.4,1,1,1h12.8c0.5,0,1-0.4,1-1C129.8,64,129.4,63.5,128.9,63.5z"/></g><g id="change1_24"><path d="M104,67.7H88.3c-0.5,0-1,0.4-1,1c0,0.5,0.4,1,1,1H104c0.5,0,1-0.4,1-1C105,68.1,104.6,67.7,104,67.7z"/></g><g id="change1_26"><path d="M124.8,68.7c0-0.5-0.4-1-1-1h-15.7c-0.5,0-1,0.4-1,1c0,0.5,0.4,1,1,1h15.7C124.4,69.6,124.8,69.2,124.8,68.7z"/></g><g id="change1_36"><path d="M116 109.9L125.7 114.4 125.7 112 118.5 108.7 118.5 108.4 125.7 105.1 125.7 102.8 116 107.3z"/></g><g id="change1_44"><path d="M127.9 119.2L130 119.2 138.9 100 136.8 100z"/></g><g id="change1_27"><path d="M141 105.1L148.3 108.4 148.3 108.7 141 112 141 114.4 150.8 109.9 150.8 107.3 141 102.8z"/></g></g></svg>