<?xml version="1.0" encoding="UTF-8"?><svg xmlns="http://www.w3.org/2000/svg" xmlns:xlink="http://www.w3.org/1999/xlink" height="398.6" preserveAspectRatio="xMidYMid meet" version="1.0" viewBox="35.5 56.7 441.1 398.6" width="441.1" zoomAndPan="magnify"><g><g><g><g id="change1_2"><path d="M99.395,370.822c-1.367,0-2.754-0.183-4.131-0.566c0,0,0,0,0,0l-47.915-13.341c-4.016-1.118-7.347-3.738-9.379-7.378 s-2.516-7.851-1.36-11.856l37.033-128.417c2.347-8.141,10.895-12.915,19.058-10.641l47.914,13.341 c4.016,1.118,7.347,3.738,9.379,7.378c2.032,3.64,2.516,7.851,1.36,11.856l-37.033,128.418 C112.37,366.381,106.132,370.822,99.395,370.822z M97.946,360.623c2.9,0.806,5.934-0.888,6.767-3.779l37.033-128.417 c0.41-1.422,0.239-2.918-0.483-4.21c-0.721-1.292-1.904-2.223-3.33-2.62l-47.914-13.341c-2.897-0.806-5.934,0.888-6.767,3.778 L46.218,340.452c-0.41,1.422-0.239,2.917,0.483,4.21c0.721,1.292,1.904,2.223,3.33,2.62L97.946,360.623L97.946,360.623z"/><path d="M81.894,347.383c-1.511,0-3.03-0.206-4.525-0.623c-4.315-1.2-7.905-4.011-10.108-7.913 c-2.202-3.901-2.753-8.428-1.551-12.743c1.202-4.316,4.013-7.906,7.914-10.108s8.427-2.756,12.744-1.551 c4.316,1.201,7.906,4.012,10.108,7.913c2.202,3.902,2.753,8.428,1.551,12.743c-1.202,4.316-4.013,7.906-7.915,10.108 C87.562,346.648,84.744,347.383,81.894,347.383z M81.87,323.828c-2.965,0-5.694,1.965-6.527,4.957 c-0.485,1.743-0.263,3.57,0.626,5.146c0.889,1.575,2.338,2.71,4.081,3.194c1.745,0.488,3.572,0.265,5.147-0.626 c1.575-0.889,2.71-2.338,3.195-4.081l0,0c0.485-1.743,0.263-3.57-0.626-5.146c-0.889-1.576-2.338-2.711-4.082-3.196 C83.079,323.909,82.469,323.828,81.87,323.828z"/></g><g id="change1_1"><path d="M412.605,370.822c-6.737,0-12.976-4.44-14.927-11.207l-37.034-128.418c-1.154-4.005-0.672-8.216,1.361-11.856 c2.032-3.64,5.363-6.26,9.379-7.378l47.915-13.341h-0.001c8.162-2.272,16.711,2.501,19.058,10.641l37.034,128.418 c1.154,4.006,0.672,8.217-1.361,11.856c-2.032,3.64-5.363,6.26-9.379,7.378l-47.914,13.341 C415.36,370.64,413.973,370.822,412.605,370.822z M423.449,208.055c-0.486,0-0.979,0.065-1.467,0.201h-0.001l-47.915,13.341 c-1.426,0.397-2.608,1.327-3.33,2.62s-0.894,2.788-0.482,4.21l37.033,128.417c0.833,2.892,3.869,4.585,6.768,3.779 l47.914-13.341c1.426-0.397,2.608-1.328,3.33-2.62c0.722-1.293,0.894-2.788,0.482-4.21l-37.033-128.418 C428.056,209.631,425.841,208.055,423.449,208.055z M420.641,203.439h0.01H420.641z"/><path d="M405.908,260.357c-7.343,0-14.1-4.865-16.163-12.276c-1.202-4.316-0.651-8.842,1.551-12.744 c2.202-3.901,5.792-6.712,10.108-7.914s8.842-0.65,12.743,1.551c3.901,2.202,6.712,5.792,7.913,10.108l0,0 c2.481,8.91-2.749,18.176-11.659,20.657C408.903,260.158,407.393,260.357,405.908,260.357z M405.914,236.807 c-0.61,0-1.224,0.083-1.828,0.251c-1.742,0.485-3.192,1.62-4.081,3.195c-0.89,1.575-1.112,3.403-0.627,5.146 c0.485,1.743,1.62,3.192,3.196,4.082c1.574,0.889,3.401,1.111,5.146,0.626c1.742-0.485,3.192-1.62,4.081-3.195 c0.89-1.576,1.112-3.403,0.627-5.146l0,0c-0.485-1.743-1.62-3.193-3.196-4.082C408.202,237.103,407.064,236.807,405.914,236.807 z"/></g></g><g><g id="change1_7"><path d="M353.507,371.478c-2.679,0-4.896-2.121-4.994-4.819c-0.1-2.758,2.054-5.074,4.811-5.177l0,0 c0.248-0.01,24.96-1.104,44.262-14.462c2.271-1.572,5.386-1.005,6.957,1.267c1.571,2.271,1.005,5.385-1.267,6.956 c-21.765,15.062-48.459,16.191-49.585,16.232C353.629,371.477,353.567,371.478,353.507,371.478z"/></g><g><g id="change1_6"><path d="M127.91,365.67c-1.28,0-2.559-0.488-3.536-1.465l-14.82-14.82c-1.953-1.952-1.953-5.118,0-7.07 c1.953-1.953,5.118-1.953,7.071,0l14.82,14.82c1.953,1.952,1.953,5.118,0,7.07C130.469,365.182,129.19,365.67,127.91,365.67z"/><path d="M226.048,455.309c-6.527,0-13.054-2.484-18.024-7.454l-8.53-8.53c-1.953-1.952-1.953-5.118,0-7.07 c1.953-1.953,5.118-1.953,7.071,0l8.53,8.53c6.037,6.037,15.861,6.037,21.898,0c2.928-2.914,4.536-6.797,4.536-10.944 c0-2.012-0.382-3.975-1.134-5.833c-0.771-1.914-1.913-3.634-3.401-5.121c-1.953-1.952-1.953-5.118-0.001-7.071 c1.952-1.953,5.117-1.954,7.071-0.001l18.989,18.979c6.04,6.038,15.863,6.037,21.901,0.001 c2.925-2.925,4.535-6.815,4.535-10.954c0-4.133-1.61-8.021-4.535-10.945c-1.953-1.952-1.953-5.118,0-7.07 c1.951-1.953,5.119-1.953,7.07,0c4.813,4.813,7.465,11.211,7.465,18.016c0,6.81-2.651,13.211-7.465,18.024 c-9.936,9.938-26.105,9.938-36.042,0l-4.671-4.668c-0.723,5.55-3.236,10.667-7.256,14.667 C239.094,452.826,232.572,455.309,226.048,455.309z"/><path d="M311.317,424.702c-6.808,0-13.208-2.651-18.021-7.466l-46.645-46.645c-1.953-1.952-1.953-5.118,0-7.07 c1.953-1.953,5.118-1.953,7.071,0l46.645,46.645c2.926,2.925,6.814,4.536,10.95,4.536c4.137,0,8.025-1.611,10.951-4.536 c6.038-6.038,6.038-15.863,0-21.901l-46.646-46.645c-1.953-1.952-1.953-5.118,0-7.07c1.951-1.953,5.119-1.953,7.07,0 l46.646,46.645c9.938,9.937,9.938,26.105,0,36.042C324.525,422.051,318.125,424.702,311.317,424.702z"/><path d="M333.292,388.729c-6.808,0-13.209-2.651-18.023-7.467c-1.952-1.952-1.952-5.118,0.001-7.071 c1.953-1.951,5.118-1.952,7.071,0.001c2.926,2.926,6.814,4.537,10.951,4.537c4.136,0,8.024-1.611,10.95-4.537 c2.323-2.33,3.821-5.269,4.328-8.491c0.139-0.826,0.205-1.636,0.205-2.46c0-4.132-1.611-8.023-4.537-10.956l-74.057-74.058 c-5.39-5.389-13.294-7.454-20.632-5.39c-3.763,1.06-7.152,3.14-9.8,6.016l-23.081,25.062c-0.046,0.05-0.094,0.1-0.142,0.147 c-10.855,10.857-28.52,10.858-39.378,0c-8.718-8.718-10.689-21.878-4.905-32.747c7.415-13.936,20.234-33.055,39.196-45.002 c0.07-0.044,0.141-0.086,0.212-0.126c15.593-9.76,32.678-13.042,50.784-9.759c2.717,0.396,40.397,6.187,69.956,26.447 l32.029-13.843c2.531-1.093,5.478,0.072,6.573,2.606c1.096,2.535-0.071,5.478-2.606,6.574l-34.6,14.954 c-1.618,0.699-3.486,0.493-4.913-0.538c-28.335-20.488-67.556-26.258-67.948-26.314c-0.065-0.009-0.13-0.02-0.194-0.031 c-15.676-2.863-30.465-0.005-43.952,8.492c-0.066,0.041-0.132,0.081-0.2,0.119c-17.002,10.786-28.69,28.302-35.51,41.119 c-3.704,6.961-2.438,15.392,3.148,20.979c6.935,6.933,18.203,6.956,25.167,0.067l23.006-24.98 c3.904-4.239,8.9-7.306,14.447-8.866c10.815-3.044,22.468-0.001,30.412,7.944l74.062,74.062 c4.813,4.824,7.462,11.224,7.462,18.022c0,1.38-0.112,2.749-0.335,4.067c-0.828,5.268-3.294,10.109-7.121,13.949 C346.5,386.078,340.099,388.729,333.292,388.729z"/></g><g id="change1_5"><path d="M144.691,241.839c-2.282,0-4.343-1.572-4.871-3.891c-0.613-2.692,1.072-5.373,3.765-5.985 c32.508-7.403,69.063-6.462,70.647-6.417c2.703,0.067,4.879,2.279,4.879,4.999c0,2.808-2.33,5.074-5.146,4.998 c-1.505-0.043-36.853-0.958-68.159,6.171C145.432,241.798,145.058,241.839,144.691,241.839z"/></g></g></g></g><g id="change1_4"><path d="M302.994,238.009c-1.706,0-3.368-0.874-4.304-2.447c-1.41-2.374-0.629-5.442,1.745-6.853 c26.321-15.64,42.673-44.351,42.673-74.927c0-47.67-38.768-86.738-86.419-87.089c-0.075,0-0.149-0.003-0.223-0.007 c-0.156-0.009-0.303-0.006-0.46-0.006c-0.155,0-0.304-0.003-0.46,0.006c-0.074,0.004-0.148,0.006-0.223,0.007 c-47.659,0.351-86.432,39.419-86.432,87.089c0,15.321,4.033,30.375,11.662,43.537c6.686,11.583,16.104,21.615,27.242,29.02 c2.299,1.529,2.924,4.632,1.395,6.932c-1.529,2.299-4.633,2.925-6.932,1.395c-12.414-8.254-22.913-19.437-30.36-32.339 c-8.507-14.675-13.006-31.464-13.006-48.544c0-25.808,10.014-50.105,28.196-68.415c18.15-18.277,42.319-28.458,68.064-28.673 c0.574-0.024,1.135-0.024,1.709,0c25.74,0.215,49.905,10.396,68.053,28.673c18.182,18.311,28.194,42.607,28.194,68.415 c0,34.086-18.226,66.091-47.565,83.524C304.742,237.783,303.862,238.009,302.994,238.009z"/><path d="M281.922,230.877c-0.836,0-1.683-0.21-2.461-0.651c-2.402-1.362-3.246-4.414-1.884-6.816 c3.898-6.875,7.15-15.235,9.665-24.848c3.533-13.542,5.401-29.028,5.401-44.779c0-15.722-1.864-31.195-5.391-44.747 c-6.611-25.271-18.668-41.896-30.714-42.346c-0.229-0.011-0.376-0.009-0.533-0.009c-0.155,0-0.304-0.002-0.46,0.006 c-12.126,0.454-24.188,17.078-30.801,42.355c-3.525,13.546-5.389,29.02-5.389,44.741c0,15.751,1.868,31.237,5.402,44.782 c2.255,8.588,5.105,16.203,8.471,22.626c1.282,2.446,0.338,5.468-2.108,6.749c-2.447,1.283-5.468,0.337-6.749-2.108 c-3.715-7.09-6.84-15.412-9.287-24.735c-3.749-14.364-5.729-30.723-5.729-47.314c0-16.559,1.975-32.903,5.712-47.266 c7.995-30.56,22.959-49.182,40.03-49.82c0.52-0.028,1.221-0.032,1.886,0.003c16.991,0.635,31.95,19.256,39.943,49.811 c3.739,14.369,5.715,30.712,5.715,47.272c0,16.591-1.98,32.95-5.727,47.307c-2.734,10.455-6.314,19.623-10.641,27.253 C285.355,229.965,283.664,230.877,281.922,230.877z"/><path d="M348.105,158.78H163.895c-2.761,0-5-2.239-5-5s2.239-5,5-5h184.211c2.762,0,5,2.239,5,5S350.867,158.78,348.105,158.78z"/><path d="M335.775,204.833H176.225c-2.761,0-5-2.239-5-5s2.239-5,5-5h159.551c2.762,0,5,2.239,5,5S338.537,204.833,335.775,204.833 z"/><path d="M335.81,112.772H176.191c-2.761,0-5-2.239-5-5s2.239-5,5-5H335.81c2.762,0,5,2.239,5,5S338.571,112.772,335.81,112.772z"/></g><g id="change1_3"><path d="M139.537,385.548c-4.899,0-9.506-1.908-12.97-5.373c-3.464-3.464-5.372-8.069-5.372-12.97 c0-4.899,1.908-9.505,5.372-12.97l15.778-15.778c7.152-7.152,18.788-7.151,25.939-0.001c3.465,3.465,5.373,8.071,5.373,12.971 c0,4.9-1.908,9.506-5.373,12.971c-1.952,1.952-5.118,1.952-7.071-0.001s-1.952-5.118,0-7.071c1.576-1.575,2.443-3.67,2.443-5.898 c0-2.228-0.868-4.322-2.443-5.897c-3.253-3.254-8.545-3.255-11.798-0.001l-15.778,15.777c-1.576,1.576-2.443,3.671-2.443,5.899 s0.868,4.323,2.443,5.898c1.576,1.576,3.671,2.444,5.899,2.444s4.323-0.868,5.899-2.443c1.952-1.953,5.119-1.952,7.071-0.001 c1.953,1.953,1.953,5.119,0,7.071C149.043,383.64,144.437,385.548,139.537,385.548z"/><path d="M152.782,410.032c-4.697,0-9.394-1.787-12.97-5.362c-3.465-3.465-5.373-8.071-5.373-12.971 c0-4.9,1.908-9.506,5.373-12.971l21.402-21.402c7.152-7.152,18.788-7.151,25.94-0.001c3.465,3.466,5.373,8.071,5.373,12.971 c0,4.9-1.908,9.506-5.373,12.971c-1.952,1.952-5.118,1.952-7.071-0.001c-1.953-1.952-1.953-5.118,0-7.071 c1.575-1.575,2.443-3.67,2.443-5.898s-0.868-4.323-2.443-5.899c-3.253-3.253-8.545-3.252-11.798,0.001L146.883,385.8 c-1.576,1.576-2.444,3.671-2.444,5.899s0.868,4.323,2.444,5.899c3.253,3.253,8.545,3.252,11.798-0.001 c1.953-1.95,5.118-1.951,7.071,0.001s1.953,5.118,0,7.071C162.175,408.245,157.479,410.032,152.782,410.032z"/><path d="M165.437,435.115c-4.697,0-9.394-1.787-12.969-5.362c0-0.001,0-0.001,0-0.001c-3.464-3.465-5.372-8.07-5.372-12.97 c0-4.9,1.908-9.506,5.373-12.971l27.616-27.616c7.153-7.152,18.79-7.15,25.94-0.001c3.465,3.466,5.373,8.071,5.373,12.971 c0,4.9-1.908,9.506-5.373,12.971l-27.616,27.616C174.831,433.328,170.134,435.115,165.437,435.115z M159.538,422.681 c3.253,3.253,8.545,3.253,11.799,0l27.616-27.616c1.576-1.576,2.443-3.671,2.443-5.899s-0.868-4.323-2.443-5.899 c-3.252-3.253-8.544-3.252-11.798,0.001l-27.616,27.616c-1.576,1.576-2.443,3.671-2.443,5.899 C157.095,419.01,157.962,421.105,159.538,422.681L159.538,422.681z"/><path d="M192.319,445.971c-4.697,0-9.394-1.787-12.97-5.362c-3.465-3.466-5.373-8.071-5.373-12.971 c0-4.9,1.908-9.506,5.373-12.971c1.953-1.951,5.118-1.951,7.071,0.001s1.953,5.118,0,7.071c-1.575,1.575-2.443,3.67-2.443,5.898 s0.868,4.323,2.443,5.899c3.252,3.252,8.545,3.253,11.798-0.001l19.603-19.603c1.576-1.576,2.443-3.671,2.443-5.899 s-0.868-4.323-2.443-5.899c-3.252-3.252-8.545-3.253-11.798,0.001c-1.952,1.952-5.118,1.952-7.071-0.001 c-1.953-1.952-1.953-5.118,0-7.071c7.151-7.15,18.788-7.15,25.939,0c3.465,3.466,5.373,8.071,5.373,12.971 c0,4.9-1.908,9.506-5.373,12.971l-19.603,19.603C201.714,444.184,197.017,445.971,192.319,445.971z"/></g></g></svg>