<?xml version="1.0" encoding="UTF-8"?><svg xmlns="http://www.w3.org/2000/svg" xmlns:xlink="http://www.w3.org/1999/xlink" height="59.6" preserveAspectRatio="xMidYMid meet" version="1.0" viewBox="0.5 2.9 65.0 59.6" width="65.0" zoomAndPan="magnify"><g id="change1_1"><path d="M16.6,25.1c2.7,0,4.9-2.2,4.9-4.9s-2.2-4.9-4.9-4.9s-4.9,2.2-4.9,4.9S13.9,25.1,16.6,25.1z M16.6,17.3 c1.6,0,2.9,1.3,2.9,2.9c0,1.6-1.3,2.9-2.9,2.9s-2.9-1.3-2.9-2.9C13.7,18.6,15,17.3,16.6,17.3z"/><path d="M64,41.4C64,41.4,64,41.4,64,41.4l-2.8,0c-4.5-7.2-4.3-6.8-4.5-7.2l-2.1-5.7c0.7-1.2,0.8-2.6,0.4-3.9l-1.9-5.9l3.6,2.1 c0.1,0.1,2.2,3.1,3.2,4.6c0.7,1,1.9,1.4,3,1.1c1.8-0.5,2.6-2.5,1.6-4.1c-3-4.8-2.8-4.8-3.5-5.2c-6.1-3.3-8.2-6.5-11.8-5.1 c-5.5,2.1-11.4,3.5-12.6,8.9l-1,4.8l-4.3,2.8c-0.2,0.1-0.3,0.3-0.5,0.4c-0.2,0-0.4,0-0.6,0.1l-2.3,0.8c-0.7,0.3-1.6,0.1-2.2-0.4 l-3.2-2.6c-1.9-1.6-3.4-0.9-10.2-1.5c-1.4-0.1-2.9,0.5-3.8,1.6l-5.8,6.8c-0.2,0.2-0.4,0.5-0.4,0.9l-1.3,5.2 c-0.5,1.8,0.9,3.5,2.8,3.4c1.2,0,2.2-0.8,2.5-1.9L8.1,36l2.8-3v6.2c0,0.7,0.2,1.4,0.5,2L9.4,59.2c0,0.5,0,0.9,0.2,1.3H5.7 c-0.6,0-1,0.4-1,1s0.4,1,1,1h14.4c0.6,0,1-0.4,1-1v-8.7h14.3c0.6,0,1-0.4,1-1v-8.3L64,43.4c0.6,0,1-0.5,1-1 C65,41.9,64.6,41.4,64,41.4z M47.4,40.7l-1.8-5.6c-0.1-0.3,0-0.7,0.4-0.9l3.4-2l1.8,4.2c0.1,0.2,0.2,0.4,0.3,0.6l2.8,4.4l-7,0 C47.5,41.2,47.5,41,47.4,40.7z M58.9,41.4h-2.2L53.3,36c-0.1-0.1-0.1-0.2-0.2-0.4l-1.9-4.5l1.7-0.9c0.1,0,0.1-0.1,0.2-0.2l1.8,4.8 C55.2,35.7,55.3,35.8,58.9,41.4z M36.9,27.3c0.4-0.3,0.7-0.7,0.8-1.2l1-4.8c0.9-4.3,6.1-5.3,11.3-7.4c2.1-0.8,3,1,10,5 c0.2,0.2,0.3,0.5,2.9,4.6c0.3,0.5,0,1-0.4,1.1c-0.3,0.1-0.6,0-0.8-0.3c-3.4-4.8-3.2-4.8-3.8-5.1L52,15.7c-0.4-0.2-0.8-0.2-1.1,0.1 c-0.3,0.3-0.5,0.7-0.3,1.1l2.6,8.4c0.4,1.3-0.2,2.6-1.3,3.3L45,32.4c-1.2,0.6-1.7,2-1.3,3.3l1.8,5.6c0,0.1,0.1,0.2,0.1,0.2l-2.2,0 l-2.2-6.9c-0.5-1.4,0-3.1,1.4-3.9l4.1-2.5c0.4-0.2,0.6-0.7,0.4-1.2l-2.6-7.7c-0.1-0.4-0.5-0.6-0.9-0.7c-0.4,0-0.8,0.2-1,0.5l-5,9.7 c-2,0.9-3.2,1.5-4,1.9c-0.1-0.4-0.3-0.8-0.5-1.1L36.9,27.3z M6.6,34.6c-0.2,0.2-0.4,0.5-0.5,0.8l-1.6,5.2c-0.1,0.3-0.4,0.5-0.7,0.5 c-0.5,0-0.9-0.4-0.8-0.9L4.4,35l5.8-6.8c0.5-0.6,1.4-1,2.2-0.9c7,0.5,7.9,0.1,9,1l3.2,2.6c1.1,0.9,2.7,1.2,4.1,0.7l2.3-0.8 c0.3-0.1,0.7,0.1,0.7,0.4c0,0.3-0.1,0.5-0.4,0.6L28,33c-1.2,0.4-2.5,0.2-3.5-0.5L20.9,30c-0.3-0.2-0.7-0.2-1-0.1 c-0.3,0.2-0.5,0.5-0.5,0.9L19.1,39c0,0.5,0.3,0.9,0.8,1l4.7,1.2c1.5,0.4,2.5,1.8,2.5,3.4l0,6.4H25v-4.6c0-1.3-0.9-2.4-2.2-2.7 l-7.7-1.7c-1.3-0.3-2.2-1.4-2.2-2.7v-8.8c0-0.4-0.3-0.8-0.6-0.9c-0.4-0.1-0.8,0-1.1,0.3L6.6,34.6z M14.6,43.8l1.3,0.3l-2.4,15.5 c-0.1,0.5-0.6,0.9-1.1,0.9c-0.6,0-1-0.6-1-1.1l1.7-16.2C13.6,43.5,14.1,43.7,14.6,43.8z M20.1,50.9c-0.6,0-1,0.4-1,1v8.7h-3.9 c0.1-0.2,0.1-0.4,0.2-0.6l2.4-15.4l4.5,1c0.4,0.1,0.6,0.4,0.6,0.8v4.6H20.1z M35.4,41.5c-0.6,0-1,0.4-1,1v8.3H29l0-6.3 c0.1-2.5-1.5-4.8-4-5.4l-3.9-1l0.1-5.5l2,1.4c1.5,1.1,3.5,1.4,5.3,0.8l3.4-1.2c0.4-0.1,0.8-0.4,1.1-0.7c1.1-0.1,1.8-0.9,5.4-2.4 c0.4-0.2,0.7-0.5,0.9-0.9l4-7.6l1.6,4.7L41.5,29c-2.1,1.3-3,4-2.2,6.3l2,6.2L35.4,41.5z"/><path d="M48.2,10.6c0.6-1.2,0.7-2.5,0.3-3.7c-0.8-2.6-3.5-4-6.1-3.2c-2.6,0.8-4,3.6-3.2,6.1C40.5,14,46.2,14.5,48.2,10.6z M43,5.6 c1.5-0.5,3.1,0.4,3.6,1.9c0.2,0.7,0.2,1.5-0.2,2.2c-1.2,2.3-4.5,2-5.3-0.5C40.7,7.7,41.5,6.1,43,5.6z"/></g></svg>